<?xml version="1.0" encoding="utf-8"?>
<!-- Generator: Adobe Illustrator 18.1.1, SVG Export Plug-In . SVG Version: 6.00 Build 0)  -->
<svg version="1.1" id="Layer_1" xmlns="http://www.w3.org/2000/svg" xmlns:xlink="http://www.w3.org/1999/xlink" x="0px" y="0px"
	 width="100px" height="100px" viewBox="-201 201 100 100" enable-background="new -201 201 100 100" xml:space="preserve">
<path id="path27_2_" fill="#FFFFFF" d="M-101.9,252.9c0.6-0.5,0.9-1.2,0.9-1.9s-0.3-1.5-0.9-1.9c-3.1-2.7-7.2-4.2-11.3-4.2h-22.5
	l-33.7-42.9h-10.2l16.3,42.9h-15.3c-1.4,0-2.8,0.4-4.1,1l-10.2-15.3h-8.2l8.2,20.4l-8.2,20.4h8.2l10.2-15.3c1.3,0.7,2.7,1,4.1,1
	h15.3l-16.3,42.9h10.2l33.7-42.9h22.5C-109.1,257.1-105.1,255.6-101.9,252.9"/>
</svg>
