<?xml version="1.0" encoding="utf-8"?>
<!-- Generator: Adobe Illustrator 18.1.1, SVG Export Plug-In . SVG Version: 6.00 Build 0)  -->
<svg version="1.1" id="Layer_1" xmlns="http://www.w3.org/2000/svg" xmlns:xlink="http://www.w3.org/1999/xlink" x="0px" y="0px"
	 width="500px" height="500px" viewBox="0 0 500 500" enable-background="new 0 0 500 500" xml:space="preserve">
<path fill="none" stroke="#FFFFFF" stroke-width="4" stroke-miterlimit="10" d="M405.6,95.3C364,53.8,308.8,30.9,250,30.9
	c-58.8,0-114,22.9-155.6,64.4C52.9,136.9,30,192.1,30,250.9c0,42.7,12.3,84.2,35.5,119.8c20.8,31.9,49.3,57.8,82.9,75.3
	c3,6.5,8.1,11.6,14.3,13.7l40.1,13.6c4.1,1.4,7,0,7.9-2.7c0.9-2.7-0.5-5.6-3.2-6.5l-22.7-7.7l0.7-1.9l40.1,13.6
	c2.7,0.9,5.6-0.5,6.5-3.2c0.9-2.7-0.5-5.6-3.2-6.5l-37.2-12.7l0.7-1.9l43,14.6c2.7,0.9,5.6-0.5,6.5-3.2c0.9-2.7-0.5-5.6-3.2-6.5
	l-43-14.6l0.7-1.9l37.2,12.7c2.7,0.9,5.6-0.5,6.5-3.2c0.9-2.7-0.5-5.6-3.2-6.5l-52.2-17.8l0.7-1.9l18.8,6.4c2.7,0.9,5.6-0.5,6.5-3.2
	c0.9-2.7,0.9-5.1-3.2-6.5l-22.7-7.7l0,0c-8.4-2.8-17.1-1.7-24.2,2.3c-24.7-14.2-45.8-34-61.4-58.1c-19-29.2-29-63.1-29-98
	c0-99.3,80.7-180,180-180c99.3,0,180,80.7,180,180c0,34.3-9.7,67.7-28,96.5c-15.7,24.7-37.2,45.2-62.4,59.7
	c-7.1-4.1-15.8-5.2-24.2-2.3l0,0l-22.7,7.7c-4.1,1.4-4.1,3.8-3.2,6.5c0.9,2.7,3.8,4.1,6.5,3.2l18.8-6.4l0.7,1.9l-52.2,17.8
	c-2.7,0.9-4.1,3.8-3.2,6.5c0.9,2.7,3.8,4.1,6.5,3.2l37.2-12.7l0.7,1.9l-43,14.6c-2.7,0.9-4.1,3.8-3.2,6.5c0.9,2.7,3.8,4.1,6.5,3.2
	l43-14.6l0.7,1.9l-37.2,12.7c-2.7,0.9-4.1,3.8-3.2,6.5c0.9,2.7,3.8,4.1,6.5,3.2l40.1-13.6l0.7,1.9l-22.7,7.7
	c-2.7,0.9-4.1,3.8-3.2,6.5c0.9,2.7,3.8,4.1,7.9,2.7l40.1-13.6c6.2-2.1,11.3-7.2,14.3-13.7c34.3-17.9,63.3-44.5,84.1-77.2
	c22.4-35.2,34.2-76,34.2-117.9C470,192.1,447.1,136.9,405.6,95.3z"/>
</svg>
