<?xml version="1.0" encoding="utf-8"?>
<!-- Generator: Adobe Illustrator 18.1.1, SVG Export Plug-In . SVG Version: 6.00 Build 0)  -->
<svg version="1.1" id="Layer_1" xmlns="http://www.w3.org/2000/svg" xmlns:xlink="http://www.w3.org/1999/xlink" x="0px" y="0px"
	 width="338px" height="314px" viewBox="0 0 338 314" enable-background="new 0 0 338 314" xml:space="preserve">
<polygon opacity="0.4" fill="#FFFFFF" points="312,0 312,144 78,144 78,26 104,26 104,98 104,124 130,124 260,124 286,124 286,98 
	286,0 260,0 234,0 208,0 208,52 182,52 182,0 156,0 156,52 156,78 182,78 208,78 234,78 234,52 234,26 260,26 260,98 130,98 130,0 
	104,0 78,0 52,0 52,144 26,144 26,0 0,0 0,144 0,170 0,314 26,314 26,170 260,170 260,288 234,288 234,216 234,190 208,190 78,190 
	52,190 52,216 52,314 78,314 104,314 130,314 130,262 156,262 156,314 182,314 182,262 182,236 156,236 130,236 104,236 104,262 
	104,288 78,288 78,216 208,216 208,314 234,314 260,314 286,314 286,170 312,170 312,314 338,314 338,170 338,144 338,0 "/>
<g>
	<g>
		<rect x="703.8" y="-3" width="26" height="170"/>
		<rect x="703.8" y="141" width="338" height="26"/>
		<rect x="1015.8" y="-3" width="26" height="170"/>
		<rect x="755.8" y="-3" width="26" height="164.5"/>
		<rect x="781.8" y="-3" width="26" height="26"/>
		<rect x="807.8" y="-3" width="26" height="124"/>
		<rect x="859.8" y="-3" width="26" height="78"/>
		<rect x="859.8" y="49" width="78" height="26"/>
		<rect x="911.8" y="-3" width="26" height="78"/>
		<rect x="937.8" y="-3" width="26" height="26"/>
		<rect x="963.8" y="-3" width="26" height="124"/>
		<rect x="807.8" y="95" width="182" height="26"/>
	</g>
	<g>
		<rect x="1015.8" y="141" width="26" height="170"/>
		<rect x="703.8" y="141" width="338" height="26"/>
		<rect x="703.8" y="141" width="26" height="170"/>
		<rect x="963.8" y="146.5" width="26" height="164.5"/>
		<rect x="937.8" y="285" width="26" height="26"/>
		<rect x="911.8" y="187" width="26" height="124"/>
		<rect x="859.8" y="233" width="26" height="78"/>
		<rect x="807.8" y="233" width="78" height="26"/>
		<rect x="807.8" y="233" width="26" height="78"/>
		<rect x="781.8" y="285" width="26" height="26"/>
		<rect x="755.8" y="187" width="26" height="124"/>
		<rect x="755.8" y="187" width="182" height="26"/>
	</g>
</g>
</svg>
